<svg width="25" height="25" viewBox="0 0 25 25" fill="none" xmlns="http://www.w3.org/2000/svg">
<path d="M5.20817 2.08331H19.7915C20.0678 2.08331 20.3327 2.19306 20.5281 2.38841C20.7234 2.58376 20.8332 2.84871 20.8332 3.12498V21.875C20.8332 22.1512 20.7234 22.4162 20.5281 22.6115C20.3327 22.8069 20.0678 22.9166 19.7915 22.9166H5.20817C4.9319 22.9166 4.66695 22.8069 4.4716 22.6115C4.27625 22.4162 4.1665 22.1512 4.1665 21.875V3.12498C4.1665 2.84871 4.27625 2.58376 4.4716 2.38841C4.66695 2.19306 4.9319 2.08331 5.20817 2.08331ZM9.37484 11.4583V8.33331L4.1665 12.5L9.37484 16.6666V13.5416H15.6248V11.4583H9.37484Z" fill="#8692A6"/>
</svg>
