<svg width="25" height="25" viewBox="0 0 25 25" fill="none" xmlns="http://www.w3.org/2000/svg">
<path d="M11.5002 2.08337C5.75641 2.08337 1.0835 6.75629 1.0835 12.5V16.8157C1.0835 17.8823 2.01787 18.75 3.16683 18.75H4.2085C4.48476 18.75 4.74971 18.6403 4.94507 18.4449C5.14042 18.2496 5.25016 17.9846 5.25016 17.7084V12.3511C5.25016 12.0748 5.14042 11.8099 4.94507 11.6145C4.74971 11.4192 4.48476 11.3094 4.2085 11.3094H3.26266C3.84183 7.27817 7.31058 4.16671 11.5002 4.16671C15.6897 4.16671 19.1585 7.27817 19.7377 11.3094H18.7918C18.5156 11.3094 18.2506 11.4192 18.0553 11.6145C17.8599 11.8099 17.7502 12.0748 17.7502 12.3511V18.75C17.7502 19.899 16.8158 20.8334 15.6668 20.8334H13.5835V19.7917H9.41683V22.9167H15.6668C17.9647 22.9167 19.8335 21.048 19.8335 18.75C20.9825 18.75 21.9168 17.8823 21.9168 16.8157V12.5C21.9168 6.75629 17.2439 2.08337 11.5002 2.08337Z" fill="#696F79"/>
</svg>
