<svg width="152" height="29" viewBox="0 0 152 29" fill="none" xmlns="http://www.w3.org/2000/svg">
<path d="M16.17 28.54L13.83 25.03C13.17 25.15 12.5 25.21 11.82 25.21C9.84 25.21 8.02 24.75 6.36 23.83C4.7 22.89 3.38 21.6 2.4 19.96C1.44 18.3 0.96 16.43 0.96 14.35C0.96 12.27 1.44 10.41 2.4 8.77C3.38 7.11 4.7 5.82 6.36 4.9C8.02 3.98 9.84 3.52 11.82 3.52C13.82 3.52 15.64 3.98 17.28 4.9C18.94 5.82 20.25 7.11 21.21 8.77C22.17 10.41 22.65 12.27 22.65 14.35C22.65 16.09 22.3 17.7 21.6 19.18C20.9 20.64 19.94 21.86 18.72 22.84L23.19 28.54H16.17ZM6.96 14.35C6.96 16.01 7.39 17.33 8.25 18.31C9.11 19.27 10.3 19.75 11.82 19.75C13.32 19.75 14.5 19.26 15.36 18.28C16.24 17.3 16.68 15.99 16.68 14.35C16.68 12.67 16.24 11.35 15.36 10.39C14.5 9.41 13.32 8.92 11.82 8.92C10.3 8.92 9.11 9.41 8.25 10.39C7.39 11.35 6.96 12.67 6.96 14.35ZM42.5426 8.17V25H36.6326V22.6C36.1326 23.36 35.4426 23.98 34.5626 24.46C33.6826 24.92 32.6726 25.15 31.5326 25.15C29.5726 25.15 28.0226 24.51 26.8826 23.23C25.7626 21.93 25.2026 20.17 25.2026 17.95V8.17H31.0526V17.2C31.0526 18.16 31.3026 18.92 31.8026 19.48C32.3226 20.02 33.0026 20.29 33.8426 20.29C34.7026 20.29 35.3826 20.02 35.8826 19.48C36.3826 18.92 36.6326 18.16 36.6326 17.2V8.17H42.5426ZM48.859 6.61C47.819 6.61 46.979 6.33 46.339 5.77C45.719 5.19 45.409 4.47 45.409 3.61C45.409 2.73 45.719 2 46.339 1.42C46.979 0.839999 47.819 0.549998 48.859 0.549998C49.879 0.549998 50.699 0.839999 51.319 1.42C51.959 2 52.279 2.73 52.279 3.61C52.279 4.47 51.959 5.19 51.319 5.77C50.699 6.33 49.879 6.61 48.859 6.61ZM51.769 8.17V25H45.889V8.17H51.769ZM60.6975 20.11H67.8675V25H54.2175V20.35L60.9075 13.06H54.2775V8.17H67.6275V12.82L60.6975 20.11ZM91.9948 3.85V8.53H86.3548V25H80.4748V8.53H74.8948V3.85H91.9948ZM97.1402 6.61C96.1002 6.61 95.2602 6.33 94.6202 5.77C94.0002 5.19 93.6902 4.47 93.6902 3.61C93.6902 2.73 94.0002 2 94.6202 1.42C95.2602 0.839999 96.1002 0.549998 97.1402 0.549998C98.1602 0.549998 98.9802 0.839999 99.6002 1.42C100.24 2 100.56 2.73 100.56 3.61C100.56 4.47 100.24 5.19 99.6002 5.77C98.9802 6.33 98.1602 6.61 97.1402 6.61ZM100.05 8.17V25H94.1702V8.17H100.05ZM125.389 8.02C127.509 8.02 129.169 8.66 130.369 9.94C131.589 11.22 132.199 12.97 132.199 15.19V25H126.319V15.97C126.319 15.07 126.069 14.37 125.569 13.87C125.069 13.37 124.389 13.12 123.529 13.12C122.669 13.12 121.989 13.37 121.489 13.87C120.989 14.37 120.739 15.07 120.739 15.97V25H114.859V15.97C114.859 15.07 114.609 14.37 114.109 13.87C113.629 13.37 112.959 13.12 112.099 13.12C111.219 13.12 110.529 13.37 110.029 13.87C109.529 14.37 109.279 15.07 109.279 15.97V25H103.399V8.17H109.279V10.39C109.799 9.67 110.469 9.1 111.289 8.68C112.129 8.24 113.089 8.02 114.169 8.02C115.409 8.02 116.509 8.29 117.469 8.83C118.449 9.37 119.219 10.13 119.779 11.11C120.379 10.19 121.169 9.45 122.149 8.89C123.129 8.31 124.209 8.02 125.389 8.02ZM151.5 16.39C151.5 16.85 151.47 17.31 151.41 17.77H140.28C140.34 18.69 140.59 19.38 141.03 19.84C141.49 20.28 142.07 20.5 142.77 20.5C143.75 20.5 144.45 20.06 144.87 19.18H151.14C150.88 20.34 150.37 21.38 149.61 22.3C148.87 23.2 147.93 23.91 146.79 24.43C145.65 24.95 144.39 25.21 143.01 25.21C141.35 25.21 139.87 24.86 138.57 24.16C137.29 23.46 136.28 22.46 135.54 21.16C134.82 19.86 134.46 18.33 134.46 16.57C134.46 14.81 134.82 13.29 135.54 12.01C136.26 10.71 137.26 9.71 138.54 9.01C139.84 8.31 141.33 7.96 143.01 7.96C144.67 7.96 146.14 8.3 147.42 8.98C148.7 9.66 149.7 10.64 150.42 11.92C151.14 13.18 151.5 14.67 151.5 16.39ZM145.5 14.92C145.5 14.2 145.26 13.64 144.78 13.24C144.3 12.82 143.7 12.61 142.98 12.61C142.26 12.61 141.67 12.81 141.21 13.21C140.75 13.59 140.45 14.16 140.31 14.92H145.5Z" fill="#696F79"/>
</svg>
