<svg width="38" height="38" viewBox="0 0 38 38" fill="none" xmlns="http://www.w3.org/2000/svg">
<path fill-rule="evenodd" clip-rule="evenodd" d="M18.9999 1.58334C9.38117 1.58334 1.58325 9.38126 1.58325 19C1.58325 28.6188 9.38117 36.4167 18.9999 36.4167C28.6187 36.4167 36.4166 28.6188 36.4166 19C36.4166 9.38126 28.6187 1.58334 18.9999 1.58334ZM26.5492 16.055C26.6883 15.8961 26.7941 15.711 26.8605 15.5106C26.9269 15.3102 26.9526 15.0985 26.936 14.8881C26.9194 14.6776 26.8609 14.4726 26.7639 14.285C26.6669 14.0975 26.5334 13.9313 26.3712 13.7961C26.209 13.661 26.0214 13.5596 25.8195 13.498C25.6175 13.4364 25.4053 13.4159 25.1953 13.4375C24.9853 13.4591 24.7817 13.5225 24.5966 13.624C24.4115 13.7255 24.2485 13.863 24.1173 14.0283L17.3089 22.1968L13.786 18.6723C13.4874 18.3838 13.0874 18.2243 12.6723 18.2279C12.2571 18.2315 11.86 18.398 11.5665 18.6915C11.2729 18.9851 11.1064 19.3822 11.1028 19.7974C11.0992 20.2125 11.2588 20.6125 11.5472 20.9111L16.2972 25.6611C16.4527 25.8166 16.639 25.9379 16.8441 26.0174C17.0491 26.0969 17.2685 26.1329 17.4883 26.1229C17.708 26.1129 17.9232 26.0572 18.1202 25.9595C18.3173 25.8617 18.4917 25.724 18.6326 25.555L26.5492 16.055Z" fill="#696F79"/>
</svg>
