<svg width="25" height="25" viewBox="0 0 25 25" fill="none" xmlns="http://www.w3.org/2000/svg">
<path d="M9.375 21.875H5.20833C4.0625 21.875 3.125 20.9375 3.125 19.7917V5.20833C3.125 4.0625 4.0625 3.125 5.20833 3.125H9.375C10.5208 3.125 11.4583 4.0625 11.4583 5.20833V19.7917C11.4583 20.9375 10.5208 21.875 9.375 21.875ZM15.625 21.875H19.7917C20.9375 21.875 21.875 20.9375 21.875 19.7917V14.5833C21.875 13.4375 20.9375 12.5 19.7917 12.5H15.625C14.4792 12.5 13.5417 13.4375 13.5417 14.5833V19.7917C13.5417 20.9375 14.4792 21.875 15.625 21.875ZM21.875 8.33333V5.20833C21.875 4.0625 20.9375 3.125 19.7917 3.125H15.625C14.4792 3.125 13.5417 4.0625 13.5417 5.20833V8.33333C13.5417 9.47917 14.4792 10.4167 15.625 10.4167H19.7917C20.9375 10.4167 21.875 9.47917 21.875 8.33333Z" fill="#696F79"/>
</svg>
